<?xml version="1.0" encoding="UTF-8"?>
<svg width="256" height="256" viewBox="0 0 256 256" fill="none" xmlns="http://www.w3.org/2000/svg">
  <circle cx="128" cy="128" r="118" stroke="#C62839" stroke-width="20" fill="none"/>
  <path d="M94.2 71.6c4-4.8 10.2-6.6 15.7-3.3 10.9 6.5 19.5 15.2 26 26.1 3.3 5.6 1.5 12-3.3 16l-12 9.8c-3.9 3.2-5 8.7-2.5 13.1 6.6 11.5 16.2 21.1 27.7 27.7 4.4 2.5 9.9 1.4 13.1-2.5l9.8-12c4-4.8 10.4-6.6 16-3.3 10.9 6.5 19.6 15.1 26.1 26 3.3 5.6 1.5 12-3.3 16l-8.4 6.8c-11.3 9.1-26.7 12-40.5 7.4-18.7-6.3-36.3-19-53.2-35.9-16.9-16.9-29.6-34.5-35.9-53.2-4.6-13.8-1.7-29.2 7.4-40.5l6.8-8.4Z" fill="#C62839"/>
  <path d="M160.5 66.5c23.4 4.7 42.3 23.6 47 47" stroke="#C62839" stroke-width="16" stroke-linecap="round" fill="none"/>
  <path d="M158 38c37 7.4 66.6 37 74 74" stroke="#C62839" stroke-width="16" stroke-linecap="round" fill="none"/>
</svg>
