<?xml version="1.0" encoding="UTF-8"?>
<svg width="256" height="256" viewBox="0 0 256 256" xmlns="http://www.w3.org/2000/svg" fill="none">
  <!-- Simplified white handset with waves (no outer circle, suited for red circular button) -->
  <path fill="#FFFFFF" d="M88.3 54.2c5-6 12.7-8.2 19.7-4.1 13.6 8.1 24.3 19 32.4 32.5 4.1 7 1.9 14.9-4 19.9l-12.3 10.1c-3.9 3.2-5 8.7-2.5 13.1 7 12.1 17.6 22.7 29.7 29.7 4.4 2.5 9.9 1.4 13.1-2.5l10.1-12.3c5-5.9 12.9-8.1 19.9-4 13.6 8.1 24.4 18.8 32.5 32.4 4.1 7 1.9 14.7-4.1 19.7l-7.6 6.1c-12.7 10.2-29.9 13.5-45.3 8.3-21.3-7.1-41.1-21.8-60.3-41.1-19.2-19.2-34-39-41.1-60.3-5.2-15.5-1.9-32.6 8.3-45.3l6.1-7.6Z"/>
  <path stroke="#FFFFFF" stroke-linecap="round" stroke-width="16" d="M153 42c30 6 54 30 60 60"/>
  <path stroke="#FFFFFF" stroke-linecap="round" stroke-width="16" d="M148 16c44 9 79 44 88 88"/>
</svg>
